# xmcd
#
# Track frame offsets:
#	150
#	16841
#	42207
#	80078
#	104754
#	129063
#	144376
#	164992
#	180005
#	215688
#	241475
#	257766
#	287107
# Disc length: 4165 seconds
# Revision: 1
# Processed by: cddbd v1.5.2PL0 Copyright (c) Steve Scherf et al.
#
# Submitted via: libkcddb 0.10
#
DISCID=b810430d
DTITLE=FAjne - Super
DYEAR=1900
DGENRE=
TTITLE0=
TTITLE1=
TTITLE2=Muza
TTITLE3=
TTITLE4=
TTITLE5=
TTITLE6=
TTITLE7=
TTITLE8=
TTITLE9=
TTITLE10=
TTITLE11=
TTITLE12=
EXTD=
EXTT0=
EXTT1=
EXTT2=
EXTT3=
EXTT4=
EXTT5=
EXTT6=
EXTT7=
EXTT8=
EXTT9=
EXTT10=
EXTT11=
EXTT12=
PLAYORDER=
